<svg width="100" height="100" viewBox="0 0 100 100" xmlns="http://www.w3.org/2000/svg" xmlns:xlink="http://www.w3.org/1999/xlink"><defs><path id="a" d="M0 .994h8.885v8.973H0z"/><path id="c" d="M.62.993h8.884v8.974H.619z"/><path id="e" d="M.619.112h8.885v8.974H.619z"/></defs><g fill="none" fill-rule="evenodd"><path d="M94.581 26.902C93.838 24.797 52.745 1.377 49.274.452c-.018-.004-.035.01-.052.01-.018 0-.035-.014-.053-.01-3.47.925-44.595 24.345-45.338 26.45-.744 2.105-1.244 16.065.67 20.89 1.915 4.827 44.705 51.284 44.705 51.284s42.79-46.457 44.705-51.283c1.914-4.826 1.413-18.786.67-20.891" fill="#B6EAFF"/><path d="M87.676 51.617c-5.29 1.785-10.562 3.692-15.946 5.186-2.557.71-5.235 1.41-7.802.943-5.238 1.277-11.055.796-16.402.783-4.328-.01-9.403.664-13.599-.768-.407.304-.938.461-1.56.344-9.386-1.767-19.084-4.926-27.552-9.714 4.33 7.19 44.391 50.684 44.391 50.684s35.638-38.693 43.318-49.119c-1.617.554-3.23 1.115-4.848 1.661" fill="#6ECCFA"/><path d="M48.426 98.595a.514.514 0 01-.404-.195c-3.594-4.513-15.61-41.466-16.12-43.037a.517.517 0 01.982-.32c.125.384 12.467 38.346 15.945 42.714a.515.515 0 01-.403.838" fill="#00B1FD"/><path d="M31.97 52.91a.516.516 0 01-.5-.392c-1.074-4.285-.059-19.218-.015-19.852a.507.507 0 01.551-.48c.285.02.5.266.48.551-.01.153-1.049 15.403-.015 19.53a.515.515 0 01-.5.642" fill="#6ECCFA"/><path d="M31.97 30.854a.515.515 0 01-.486-.691C32.15 28.314 46.728 3.486 47.348 2.43a.517.517 0 01.89.524c-4.211 7.17-15.256 26.1-15.78 27.558a.516.516 0 01-.486.342m-3.867.65c-6.221 0-20.765-1.4-22.64-2.77a.515.515 0 11.61-.833c1.678 1.227 22.12 3.273 24.3 2.435a.517.517 0 11.37.963c-.367.142-1.315.205-2.64.205" fill="#F8FAFB"/><path d="M29.116 57.449c-5.822 0-20.345-5.81-21.585-7.362a.517.517 0 01.808-.646c1.39 1.743 18.815 8.178 22.019 6.804a.516.516 0 11.405.95c-.407.175-.97.254-1.647.254m20.405 41.146a.515.515 0 01-.403-.838c3.478-4.368 15.82-42.33 15.945-42.713a.517.517 0 01.982.319c-.509 1.57-12.526 38.524-16.12 43.037a.514.514 0 01-.404.195" fill="#00B1FD"/><path d="M65.977 52.91a.515.515 0 01-.501-.642c1.034-4.129-.004-19.378-.015-19.53a.517.517 0 01.48-.552.508.508 0 01.551.48c.044.634 1.06 15.567-.015 19.852a.516.516 0 01-.5.391" fill="#6ECCFA"/><path d="M65.977 30.854a.516.516 0 01-.486-.342c-.524-1.459-11.57-20.388-15.781-27.558a.516.516 0 11.89-.524c.62 1.056 15.199 25.884 15.863 27.733a.515.515 0 01-.486.691m3.865.65c-1.327 0-2.274-.063-2.64-.205a.517.517 0 11.37-.963c2.182.839 22.621-1.21 24.3-2.435a.515.515 0 11.61.834c-1.875 1.369-16.418 2.769-22.64 2.769" fill="#F8FAFB"/><path d="M68.831 57.449c-.679 0-1.24-.08-1.647-.253a.517.517 0 01.405-.95c3.205 1.364 20.63-5.062 22.02-6.805a.517.517 0 01.807.645c-1.24 1.553-15.762 7.363-21.585 7.363" fill="#00B1FD"/><path d="M36.433 31.568c-.96 0-1.643-.015-1.95-.048a.516.516 0 01-.457-.57.51.51 0 01.569-.457c2.33.255 28.393-.662 28.656-.672a.534.534 0 01.534.498.518.518 0 01-.498.535c-.94.033-20.316.714-26.854.714" fill="#F8FAFB"/><path d="M44.415 58.43c-4.093 0-7.387-.088-7.952-.357a.517.517 0 01.44-.935c1.167.46 16.251.214 25.491-.047.253-.035.522.215.53.501a.516.516 0 01-.5.531c-2.528.072-11.33.307-18.009.307" fill="#00B1FD"/><path d="M.659 99.92a.52.52 0 01-.497-.677c.465-1.484 3.682-5.073 6.52-8.24 1.72-1.92 3.345-3.732 3.68-4.347a.522.522 0 01.915.499c-.374.686-1.695 2.174-3.82 4.544-2.49 2.78-5.903 6.587-6.301 7.856a.522.522 0 01-.497.365m8.791-.425a.52.52 0 01-.515-.604c.248-1.537 1.959-4.14 3.47-6.436.92-1.4 1.79-2.724 2.034-3.38a.52.52 0 11.976.362c-.284.768-1.144 2.076-2.14 3.59-1.38 2.1-3.098 4.713-3.311 6.03a.521.521 0 01-.514.438" fill="#B6EAFF"/><g transform="translate(0 81.92)"><mask id="b" fill="#fff"><use xlink:href="#a"/></mask><path d="M.52 9.967a.521.521 0 01-.474-.737c.645-1.417 2.98-3.476 5.04-5.293 1.259-1.11 2.448-2.158 2.855-2.726a.52.52 0 11.847.607c-.476.665-1.651 1.701-3.011 2.9C3.893 6.38 1.547 8.448.996 9.662a.52.52 0 01-.475.305" fill="#B6EAFF" mask="url(#b)"/></g><path d="M98.846 99.92a.522.522 0 01-.497-.365c-.398-1.268-3.81-5.075-6.301-7.855-2.124-2.371-3.446-3.86-3.82-4.545a.52.52 0 11.915-.5c.335.616 1.96 2.43 3.68 4.349 2.838 3.166 6.055 6.755 6.52 8.239a.52.52 0 01-.497.677m-8.791-.425a.521.521 0 01-.514-.438c-.213-1.317-1.93-3.931-3.312-6.03-.995-1.514-1.855-2.822-2.14-3.588a.521.521 0 11.977-.363c.243.655 1.113 1.978 2.034 3.378 1.51 2.297 3.222 4.899 3.47 6.437a.52.52 0 01-.515.604" fill="#B6EAFF"/><g transform="translate(90 81.92)"><mask id="d" fill="#fff"><use xlink:href="#c"/></mask><path d="M8.984 9.967a.52.52 0 01-.475-.306c-.551-1.214-2.897-3.28-4.781-4.943-1.36-1.199-2.535-2.235-3.011-2.9a.52.52 0 11.847-.607c.407.568 1.595 1.616 2.854 2.725 2.06 1.818 4.396 3.877 5.04 5.295a.52.52 0 01-.474.736" fill="#B6EAFF" mask="url(#d)"/></g><path d="M10.82 13.536a.521.521 0 01-.458-.271c-.335-.616-1.96-2.43-3.68-4.348C3.843 5.75.627 2.16.162.677a.521.521 0 01.993-.311c.398 1.268 3.811 5.076 6.303 7.856 2.124 2.37 3.445 3.857 3.82 4.543a.523.523 0 01-.458.77m4.107-2.351a.52.52 0 01-.488-.34c-.244-.656-1.114-1.98-2.035-3.38-1.51-2.296-3.221-4.898-3.47-6.435a.52.52 0 01.432-.597c.29-.05.552.147.598.43.213 1.318 1.93 3.93 3.31 6.03.997 1.515 1.857 2.823 2.14 3.59a.52.52 0 01-.487.702m-6.562 5.822a.523.523 0 01-.424-.217c-.408-.569-1.596-1.616-2.853-2.725C3.027 12.247.69 10.187.047 8.77a.521.521 0 01.948-.432c.553 1.215 2.898 3.283 4.782 4.944 1.36 1.2 2.534 2.235 3.01 2.9a.52.52 0 01-.422.824m80.32-3.47a.523.523 0 01-.457-.771c.374-.686 1.696-2.174 3.82-4.544 2.49-2.78 5.903-6.587 6.3-7.855a.52.52 0 11.994.311c-.464 1.484-3.68 5.072-6.518 8.239-1.721 1.92-3.346 3.733-3.681 4.349a.521.521 0 01-.458.27m-4.107-2.351a.521.521 0 01-.488-.703c.284-.766 1.144-2.074 2.14-3.59 1.38-2.098 3.099-4.711 3.312-6.028a.52.52 0 111.028.166c-.248 1.537-1.96 4.14-3.47 6.436-.92 1.4-1.79 2.723-2.034 3.38a.52.52 0 01-.488.339" fill="#B6EAFF"/><g transform="translate(90 7.92)"><mask id="f" fill="#fff"><use xlink:href="#e"/></mask><path d="M1.14 9.086a.52.52 0 01-.423-.825c.477-.664 1.65-1.699 3.01-2.899C5.612 3.702 7.957 1.633 8.51.42a.52.52 0 11.948.43c-.644 1.418-2.98 3.478-5.041 5.295C3.159 7.254 1.972 8.3 1.564 8.87a.523.523 0 01-.424.217" fill="#B6EAFF" mask="url(#f)"/></g></g></svg>